<svg xmlns="http://www.w3.org/2000/svg" xmlns:xlink="http://www.w3.org/1999/xlink" width="140" height="140" viewBox="0 0 187.87 187.87"><defs><style>.cls-1{opacity:0.8;}.cls-2{fill:url(#Безымянный_градиент_144);}.cls-3{opacity:0.5;fill:url(#Безымянный_градиент_144-2);}.cls-4{fill:#fefefe;}</style><linearGradient id="Безымянный_градиент_144" x1="13.11" y1="93.94" x2="174.76" y2="93.94" gradientUnits="userSpaceOnUse"><stop offset="0" stop-color="#379ad6"/><stop offset="1" stop-color="#5763ab"/></linearGradient><linearGradient id="Безымянный_градиент_144-2" x1="0" y1="93.94" x2="187.87" y2="93.94" xlink:href="#Безымянный_градиент_144"/></defs><title>Ресурс 1css</title><g id="Слой_2" data-name="Слой 2"><g id="Слой_1-2" data-name="Слой 1"><g class="cls-1"><circle class="cls-2" cx="93.94" cy="93.94" r="80.83"/><circle class="cls-3" cx="93.94" cy="93.94" r="93.94"/></g><path class="cls-4" d="M97.26,89.1a2.47,2.47,0,0,0,.94,1.28c2.93,2.89,5.87,5.77,8.83,8.63a2.5,2.5,0,0,1,.83,2c0,2.8,0,5.6,0,8.39,0,.92-.27,1.27-1.22,1.26q-12.53,0-25.06,0c-1,0-1.34-.31-1.32-1.31.05-2.72.06-5.44,0-8.15,0-1.09.4-1.37,1.4-1.35,2.64.05,5.27,0,7.91,0A1.8,1.8,0,0,0,91,99.56L87.6,96.21c-2.2-2.15-4.39-4.31-6.6-6.45a2.15,2.15,0,0,1-.72-1.68c0-3.2,0-6.39,0-9.59,0-1,.4-1.28,1.34-1.28q12.41,0,24.82,0c1.07,0,1.47.35,1.44,1.46q-.1,4.55,0,9.11c0,1.09-.37,1.36-1.39,1.34C103.45,89.07,100.42,89.1,97.26,89.1Z"/><path class="cls-4" d="M136.11,89.1c1.59,1.63,3,3.1,4.42,4.54Q143.24,96.36,146,99a2.29,2.29,0,0,1,.79,1.78q0,4.44,0,8.87c0,.75-.27,1-1,1q-12.71,0-25.42,0c-.75,0-1.08-.25-1.08-1q0-4.32,0-8.63c0-.84.35-1.12,1.15-1.11,2.68,0,5.36,0,8,0h1.39c-.09-.61-.49-.84-.78-1.12-3-3-6-5.91-9-8.84a2.54,2.54,0,0,1-.84-2q.05-4.68,0-9.35c0-.94.23-1.36,1.26-1.36q12.53,0,25.06,0c.88,0,1.17.26,1.16,1.17q-.08,4.79,0,9.59c0,.92-.3,1.16-1.17,1.15C142.53,89.08,139.42,89.1,136.11,89.1Z"/><path class="cls-4" d="M41.09,93.88c0-5.16,0-10.31,0-15.47,0-1,.34-1.21,1.24-1.21q12.47,0,24.94,0c1,0,1.32.32,1.31,1.31,0,3.12,0,6.23,0,9.35,0,.93-.3,1.26-1.24,1.25-4.36,0-8.71,0-13.07,0-1,0-1.41.29-1.38,1.36.06,2.72.06,5.44,0,8.15,0,1,.35,1.3,1.32,1.29,4.28,0,8.55,0,12.83,0,1.23,0,1.58.39,1.55,1.59-.08,2.68,0,5.35,0,8,0,.88-.29,1.2-1.18,1.2q-12.59,0-25.18,0c-.92,0-1.13-.33-1.12-1.2C41.11,104.27,41.09,99.08,41.09,93.88Z"/></g></g></svg>
