<svg xmlns="http://www.w3.org/2000/svg" width="65" height="65" viewBox="0 0 91.66 91.66"><defs><style>.cls-1{opacity:0.9;}.cls-2,.cls-3{fill:#113f89;}.cls-2{opacity:0.4;}.cls-4{fill:#009444;}.cls-5{fill:#fff;}</style></defs><title>earth</title><g id="Слой_2" data-name="Слой 2"><g id="Слой_1-2" data-name="Слой 1"><g class="cls-1"><path class="cls-2" d="M91.62,44.06A45.83,45.83,0,0,0,0,45.83c0,.46,0,.92,0,1.38q0,.18,0,.36,0,.61.06,1.23v.15c0,.45.07.9.11,1.35l0,.34q.06.57.13,1.14l0,.22q.09.66.2,1.32l.05.3q.1.56.2,1.11L.91,55q.13.65.28,1.3l.06.24q.13.55.28,1.1l.07.27q.17.64.37,1.28l.05.17q.17.56.36,1.12l.09.28c.14.42.29.84.45,1.25l0,.06q.22.59.46,1.17l.11.27Q4,64.7,4.61,65.89l.12.25q.28.56.57,1.11l0,.07q.31.59.64,1.16l.05.1.12.2.33.56.21.35L7,70.2l.24.37.32.48.26.39.32.46.27.39.32.44.28.39.34.45.28.37.38.48.25.32.65.78a45.83,45.83,0,0,0,80.73-29.7Q91.66,44.94,91.62,44.06Z"/><path class="cls-3" d="M84.67,45.83a38.9,38.9,0,1,1,0-1.5Q84.67,45.07,84.67,45.83Z"/><path class="cls-4" d="M84.64,44.33H69.16a5.9,5.9,0,1,1,0-11.79h1.16a5.9,5.9,0,0,1,5.8-4.83h4.07A38.62,38.62,0,0,1,84.64,44.33Z"/><path class="cls-4" d="M41.83,50.6v7.22a5.9,5.9,0,0,1-5.9,5.9H33.14A5.9,5.9,0,0,1,27.41,71H16.25a38.87,38.87,0,0,1-5.54-41.78l.42,0H27.41a5.9,5.9,0,0,1,0,11.79h-.92A5.89,5.89,0,0,1,27.8,44.7h8.14A5.9,5.9,0,0,1,41.83,50.6Z"/><circle class="cls-4" cx="58.97" cy="67.16" r="7.19"/><path class="cls-5" d="M49,42.82H47.34A5.4,5.4,0,0,0,42,38H27.08a5.4,5.4,0,0,0-5.4,5.4h0a5.4,5.4,0,0,0,5.4,5.4h1.67a5.4,5.4,0,0,0,5.36,4.77H49a5.4,5.4,0,0,0,5.4-5.4h0A5.4,5.4,0,0,0,49,42.82Z"/><path class="cls-5" d="M28.67,71a5.9,5.9,0,0,1-5.9,5.9h-.26A39,39,0,0,1,12.1,65.1H22.77A5.9,5.9,0,0,1,28.67,71Z"/><rect class="cls-5" x="42.33" y="16.64" width="28.07" height="11.79" rx="3.28" ry="3.28"/></g></g></g></svg>
