<svg xmlns="http://www.w3.org/2000/svg" xmlns:xlink="http://www.w3.org/1999/xlink" width="260" height="130" viewBox="0 0 388.25 198.73"><defs><style>.cls-1{opacity:0.9;}.cls-2{fill:url(#Безымянный_градиент_5);}.cls-3{fill:url(#Безымянный_градиент_207);}.cls-4{fill:#fff;}</style><radialGradient id="Безымянный_градиент_5" cx="105.06" cy="52.86" r="448.43" gradientUnits="userSpaceOnUse"><stop offset="0" stop-color="#5731ab"/><stop offset="0" stop-color="#5931a9"/><stop offset="0.1" stop-color="#7e3986"/><stop offset="0.19" stop-color="#9d3f69"/><stop offset="0.3" stop-color="#b74450"/><stop offset="0.42" stop-color="#cb483d"/><stop offset="0.55" stop-color="#d94b30"/><stop offset="0.72" stop-color="#e24d28"/><stop offset="1" stop-color="#e44d26"/></radialGradient><radialGradient id="Безымянный_градиент_207" cx="169.45" cy="64.49" r="234.65" gradientTransform="translate(-62.54 81.42) rotate(-13.67)" gradientUnits="userSpaceOnUse"><stop offset="0" stop-color="#5731ab"/><stop offset="0.05" stop-color="#7343a2"/><stop offset="0.14" stop-color="#985a95"/><stop offset="0.24" stop-color="#b76e8a"/><stop offset="0.34" stop-color="#d17f81"/><stop offset="0.45" stop-color="#e58b7a"/><stop offset="0.58" stop-color="#f39476"/><stop offset="0.73" stop-color="#fc9973"/><stop offset="1" stop-color="#fe9b72"/></radialGradient></defs><title>Ресурс 3</title><g id="Слой_2" data-name="Слой 2"><g id="Слой_1-2" data-name="Слой 1"><g class="cls-1"><path class="cls-2" d="M285.27,38.26q-1-1.3-2.13-2.55a92.38,92.38,0,0,0-7-7.26,99.27,99.27,0,0,0-13.23-10.36c-25-16.45-58.42-22.69-92.07-14.51S110.4,32.65,95.7,58.76a98.75,98.75,0,0,0-7,15.28,93.57,93.57,0,0,0-2.89,9.67c-.26,1.08-.5,2.16-.72,3.25A88.34,88.34,0,0,0,103,160.47q1,1.3,2.13,2.55a94.23,94.23,0,0,0,7,7.25,99.36,99.36,0,0,0,13.24,10.37c25,16.45,58.41,22.69,92.06,14.5s60.43-29.05,75.12-55.17a99.36,99.36,0,0,0,7-15.29,93,93,0,0,0,2.9-9.66c.26-1.08.5-2.16.72-3.25a88.34,88.34,0,0,0-17.88-73.52Z"/><path class="cls-3" d="M262.9,18.09a99.27,99.27,0,0,1,13.23,10.36,92.38,92.38,0,0,1,7,7.26C310.32,39.9,329,50.2,332.74,65.65S324.66,98.83,302.43,115c-22.61,16.48-56,31.41-94.57,40.8s-75.09,11.46-102.74,7.2c-27.19-4.18-45.84-14.48-49.6-29.94S63.6,99.91,85.82,83.7A93.57,93.57,0,0,1,88.71,74a98.75,98.75,0,0,1,7-15.28C33.39,85.45-5.82,119.55.71,146.41s57,39.14,124.65,34.23a525,525,0,0,0,85.2-13.71,525,525,0,0,0,82-26.95c62.32-26.69,101.53-60.8,95-87.66S330.51,13.18,262.9,18.09Z"/><path class="cls-4" d="M231.52,115.45h-10.7V100.54l-.29-.1-7,10.84L206.13,100v15.44H195.52c0-.54-.06-1-.06-1.5,0-9.67,0-19.35,0-29,0-1.22.29-1.64,1.57-1.6,2.85.09,5.7.06,8.54,0a1.92,1.92,0,0,1,1.93,1.1c1.84,3.15,3.76,6.26,5.66,9.38a4.65,4.65,0,0,0,.51.57c1.63-2.67,3.28-5.24,4.81-7.89,1.8-3.12,1.76-3.14,5.37-3.14,2.26,0,4.52,0,6.78,0,.68,0,1.11.12,1.1,1q0,15.39,0,30.79A1.65,1.65,0,0,1,231.52,115.45Z"/><path class="cls-4" d="M136.42,93.77h9.43V83.54a6.26,6.26,0,0,1,1-.19c2.94,0,5.88,0,8.82,0,.75,0,1.16.15,1.16,1q0,15.33,0,30.66a2.18,2.18,0,0,1-.09.38H146V105h-9.49v10.43H125.53c0-.43-.09-.87-.09-1.3,0-9.77,0-19.53,0-29.3,0-1.21.35-1.55,1.53-1.52,2.71.08,5.43.07,8.14,0,1.09,0,1.39.35,1.37,1.4C136.38,87.69,136.42,90.67,136.42,93.77Z"/><path class="cls-4" d="M170.7,94.22H161.4V83.42c.44,0,.87-.07,1.31-.07,8.91,0,17.82,0,26.73,0,1.23,0,1.63.32,1.6,1.59-.09,3,0,6,0,9.32h-4.67c-1.13,0-2.26.06-3.39,0s-1.39.34-1.39,1.4c0,6.06,0,12.12,0,18.18v1.66H170.7Z"/><path class="cls-4" d="M236.89,83.34c2.3,0,4.55,0,6.79,0,1.29,0,3-.33,3.75.34s.27,2.37.27,3.62c0,5.24,0,10.48,0,15.73v1.56c.67,0,1.2.07,1.73.07,4,0,8,0,11.93,0,1.12,0,1.49.35,1.47,1.47-.06,3.06,0,6.13,0,9.29H236.89Z"/></g></g></g></svg>
