<svg xmlns="http://www.w3.org/2000/svg" width="130" height="130" viewBox="0 0 226.13 188.61"><defs><style>.cls-1{opacity:0.9;}.cls-2{opacity:0.5;}.cls-3{fill:#caab13;}.cls-4{fill:#e8c70e;}.cls-5{fill:#967c0f;}.cls-6{fill:#e5be1a;}.cls-7{fill:#fff;}</style></defs><title>js</title><g id="Слой_2" data-name="Слой 2"><g id="Слой_1-2" data-name="Слой 1"><g class="cls-1"><g class="cls-2"><path class="cls-3" d="M225.62,105.3c-3.89,14.3-17.31,27.15-36.71,41.69-19.43,14-44.85,29.71-73.35,37.53C86.3,192.85,67,188.22,49.9,172.87c-16.77-15-31.32-40.7-43.85-66.12l-.16-.41c26.78,1.84,60.49,4.54,97.38,3.17,37.12-.86,77.42-5.79,122.79-7.37A24.7,24.7,0,0,1,225.62,105.3Z"/><path class="cls-4" d="M226.06,102.14c-45.38,1.58-85.67,6.51-122.79,7.37-36.89,1.37-70.59-1.33-97.38-3.17C-5.57,81,.09,55.76,19.42,34c19.07-21.09,51.8-38.75,88.45-32.8,36,4.58,65.62,28.27,86.47,48.48C215.1,70.79,227.12,88.45,226.06,102.14Z"/></g><path class="cls-3" d="M214.43,100.37C211,113.09,199,124.51,181.5,137.44c-17.53,12.46-40.55,26.42-66.38,33.39-26.48,7.42-44.08,3.3-59.53-10.36-15.18-13.34-28.21-36.21-39.27-58.82l-.14-.37c24.1,1.63,54.54,4,87.86,2.8,33.53-.77,70-5.17,110.76-6.54A21.68,21.68,0,0,1,214.43,100.37Z"/><path class="cls-4" d="M214.8,97.55C174,98.93,137.57,103.32,104,104.09c-33.32,1.23-63.76-1.18-87.86-2.8-10.11-22.54-4.86-45,12.58-64.46C46,18,75.37,2.17,108.29,7.47c32.36,4.07,59,25.26,77.75,43.3C204.75,69.65,215.65,85.37,214.8,97.55Z"/><ellipse class="cls-5" cx="42.29" cy="117.4" rx="8.27" ry="5.96"/><ellipse class="cls-6" cx="42.29" cy="119.29" rx="5.64" ry="4.06"/><ellipse class="cls-5" cx="81.71" cy="157.22" rx="10.75" ry="7.74"/><ellipse class="cls-6" cx="81.71" cy="159.68" rx="7.34" ry="5.28"/><ellipse class="cls-5" cx="127.57" cy="155.9" rx="5.78" ry="4.16"/><ellipse class="cls-6" cx="127.57" cy="157.22" rx="3.95" ry="2.84"/><ellipse class="cls-5" cx="190.9" cy="111.44" rx="6.37" ry="4.59"/><ellipse class="cls-6" cx="190.9" cy="112.9" rx="4.35" ry="3.13"/><ellipse class="cls-5" cx="99.95" cy="134.25" rx="6.37" ry="4.59"/><ellipse class="cls-6" cx="99.95" cy="135.71" rx="4.35" ry="3.13"/><ellipse class="cls-5" cx="163.99" cy="126.61" rx="10.61" ry="7.64"/><ellipse class="cls-6" cx="163.99" cy="129.04" rx="7.24" ry="5.21"/><ellipse class="cls-5" cx="34.95" cy="70.47" rx="10.75" ry="7.74"/><ellipse class="cls-6" cx="34.95" cy="72.93" rx="7.34" ry="5.28"/><ellipse class="cls-5" cx="179" cy="81.05" rx="12.88" ry="9.28"/><ellipse class="cls-6" cx="179" cy="84" rx="8.79" ry="6.33"/><ellipse class="cls-5" cx="60.9" cy="45.78" rx="7.8" ry="5.62"/><ellipse class="cls-6" cx="60.9" cy="47.56" rx="5.32" ry="3.83"/><ellipse class="cls-5" cx="98.53" cy="26.33" rx="11.98" ry="8.62"/><ellipse class="cls-6" cx="98.53" cy="29.07" rx="8.17" ry="5.88"/><ellipse class="cls-5" cx="144.83" cy="44.35" rx="6.94" ry="5"/><ellipse class="cls-6" cx="144.83" cy="45.94" rx="4.74" ry="3.41"/><ellipse class="cls-5" cx="99.95" cy="59.58" rx="6.94" ry="5"/><ellipse class="cls-6" cx="99.95" cy="61.17" rx="4.74" ry="3.41"/><path class="cls-7" d="M105.28,98.81c-1.18-.73-.62-1.9-.62-2.84-.05-7.66,0-15.31,0-23h39.75c0,2.83-.17,5.68,0,8.5.11,2.19-.61,2.89-2.84,2.87-8.51-.1-17,0-25.52,0,.09-2.43,2-2.05,3.46-2.11,5.36-.21,10.72-.06,16.08-.1A16.87,16.87,0,0,0,139,82a3.31,3.31,0,0,0,.11-6.54,12.12,12.12,0,0,0-2.82-.22c-7.88,0-15.77,0-23.65,0-4.71,0-5.73,1.07-5.79,5.77-.06,4.52,0,9,0,13.56C106.76,96.12,106.75,97.73,105.28,98.81Z"/><path class="cls-7" d="M98.32,73l.09.59a9.76,9.76,0,0,1-10.77.05l0-.65Z"/><path class="cls-7" d="M105.28,98.81c0-7.24.06-14.48-.06-21.71,0-2.57.87-3.53,3.47-3.5q15.73.14,31.47,0c2.49,0,3.62.69,3.56,3.39-.15,7.61.56,6.64-6.49,6.69-5.87,0-11.75,0-17.62,0-1.24,0-2.54-.23-3.62.67,0,.84,0,1.68-.11,2.51-.24,1.88.69,2.28,2.38,2.26,7.67-.06,15.33.06,23-.08,2.32,0,3.07.52,3,2.95-.17,6.82-.11,13.65,0,20.48,0,1.86-.47,2.57-2.47,2.56q-17.33-.12-34.66,0c-2,0-2.42-.69-2.45-2.55-.14-8.6-.2-8.6,8.31-8.6,5.78,0,11.55,0,17.33,0,1.77,0,2.86,0,2.88-2.41s-1.06-2.64-3-2.63C121.86,98.93,113.57,98.85,105.28,98.81Z"/><path class="cls-7" d="M87.64,73.64l10.77-.05q.08,19.7.17,39.41c0,1.49-.54,2-2,2q-12.77-.07-25.55,0c-1.28,0-2-.37-1.92-1.78,0-.31,0-.63,0-.95-.19-8.38-.19-8.38,8.18-8.38,2.52,0,5.06-.16,7.57,0,2.32.19,2.77-.75,2.75-2.87C87.51,91.93,87.61,82.79,87.64,73.64Z"/></g></g></g></svg>
