<svg xmlns="http://www.w3.org/2000/svg" width="45" height="45" viewBox="0 0 73.82 73.82"><defs><style>.cls-1{opacity:0.8;}.cls-2{fill:#c0b47f;}.cls-3{fill:#d6c889;}.cls-4{fill:#ede0aa;}.cls-5{fill:#d2c581;}.cls-6{fill:#4c4526;}</style></defs><title>jupiter</title><g id="Слой_2" data-name="Слой 2"><g id="Слой_1-2" data-name="Слой 1"><g class="cls-1"><path class="cls-2" d="M72.22,26.12a37,37,0,0,1-3,28.71c-21.14-1-55.26-6.5-68-8.66A36.9,36.9,0,0,1,0,36.91a36.48,36.48,0,0,1,.21-4C14.79,34.37,49.82,36.38,72.22,26.12Z"/><path class="cls-3" d="M64.22,61.74A36.92,36.92,0,0,1,3.59,52.8C20.82,55.79,50.15,59.84,64.22,61.74Z"/><path class="cls-4" d="M69.18,54.84a36.88,36.88,0,0,1-5,6.9c-9.8-1.33-27-2.07-42.36-4.39-6.7-1-13-3.64-18.28-4.55a36.34,36.34,0,0,1-2.41-6.62c7.83,1.33,23.73,2.57,39.74,4.6C51,52.05,61,54.46,69.18,54.84Z"/><path class="cls-5" d="M66.36,14.65a36.76,36.76,0,0,1,5.86,11.47C49.82,36.38,14.79,34.37.21,33A36.68,36.68,0,0,1,4,20.16C39.28,26.51,59.37,18.41,66.36,14.65Z"/><path class="cls-4" d="M62.18,10a36.64,36.64,0,0,1,4.17,4.64c-7,3.76-27.07,11.85-62.34,5.51A36.76,36.76,0,0,1,6.77,15.6C18.76,16.89,47,18.76,62.18,10Z"/><path class="cls-5" d="M36.91,0A36.78,36.78,0,0,1,62.18,10C47,18.76,18.76,16.89,6.77,15.6A36.86,36.86,0,0,1,36.91,0Z"/><ellipse class="cls-4" cx="56.2" cy="43.46" rx="6.79" ry="4.04"/><ellipse class="cls-6" cx="56.31" cy="43.94" rx="4.77" ry="2.84"/><ellipse class="cls-5" cx="56.38" cy="43.98" rx="4.49" ry="2.67"/></g></g></g></svg>
