<svg xmlns="http://www.w3.org/2000/svg" xmlns:xlink="http://www.w3.org/1999/xlink" width="251" height="121" viewBox="0 0 315.56 152.89"><defs><style>.cls-1{opacity:0.9;}.cls-2{fill:url(#Безымянный_градиент_108);}.cls-3{fill:url(#Безымянный_градиент_121);}.cls-4{fill:#fff;}</style><radialGradient id="Безымянный_градиент_108" cx="98.77" cy="57.19" r="180.3" gradientTransform="translate(44.5 -18.37) rotate(7.64)" gradientUnits="userSpaceOnUse"><stop offset="0.16" stop-color="#3f863e"/><stop offset="1" stop-color="#5731ab"/></radialGradient><radialGradient id="Безымянный_градиент_121" cx="87.64" cy="67.32" r="156.98" gradientTransform="translate(44.5 -18.37) rotate(7.64)" gradientUnits="userSpaceOnUse"><stop offset="0" stop-color="#5731ab"/><stop offset="0.07" stop-color="#584a99"/><stop offset="0.17" stop-color="#596983"/><stop offset="0.28" stop-color="#5a8371"/><stop offset="0.4" stop-color="#5b9763"/><stop offset="0.54" stop-color="#5ca559"/><stop offset="0.71" stop-color="#5cae54"/><stop offset="1" stop-color="#5cb052"/></radialGradient></defs><title>node</title><g id="Слой_2" data-name="Слой 2"><g id="Слой_1-2" data-name="Слой 1"><g class="cls-1"><polygon class="cls-2" points="223.31 47.6 215.71 29.1 208.26 10.99 126.34 0 114.37 15.51 102.17 31.33 75.85 65.46 92.24 105.29 99.85 123.78 107.3 141.9 189.22 152.89 201.18 137.38 213.39 121.55 239.7 87.44 223.31 47.6"/><path class="cls-3" d="M243.93,32.89,215.71,29.1l7.6,18.5,48.91,44.21-58.83,29.74-3.66,1.85L95.28,108l-3-2.75L43.3,61.09l58.86-29.76,12.21-15.83L86.16,11.72,0,55.28,71.63,120,229.4,141.17l86.16-43.55Z"/><path class="cls-4" d="M182.36,69.24q0-6.46,0-12.92c0-.67,0-1.34-.69-1.73-1.68-1-3.35-1.92-5-2.84-.9-.49-1.19-.33-1.19.7,0,4,0,8.05-.05,12.08,0,.67.35,1.55-.22,1.95s-1.23-.33-1.82-.63c-.78-.4-1.52-.82-2.42-.29q-4.23,2.49-8.49,4.93a2,2,0,0,0-1.05,2c0,3.1,0,6.21,0,9.31a2.34,2.34,0,0,0,1.38,2.3c2.56,1.43,5.11,2.87,7.61,4.39a2.51,2.51,0,0,0,2.88.08c2.69-1.6,5.42-3.16,8.14-4.72a1.78,1.78,0,0,0,1-1.75C182.34,77.78,182.36,73.51,182.36,69.24Zm-7.07,7.86c-.14.77.31,1.7-.45,2.25-.94.68-1.93,1.63-3,1.59s-2.16-1-3.12-1.71c-.64-.47-.33-1.36-.32-2.06s-.32-1.62.34-2.15c.93-.75,2-1.69,3.1-1.73s2.09.94,3,1.6C175.63,75.43,175.13,76.36,175.29,77.1Z"/><path class="cls-4" d="M154.34,71.86a1.59,1.59,0,0,0-.88-1.51c-2.87-1.64-5.74-3.27-8.59-4.94a2,2,0,0,0-2.22,0c-2.79,1.63-5.6,3.23-8.41,4.85a1.81,1.81,0,0,0-1,1.77c0,1.62,0,3.24,0,4.86s0,3.31,0,5a1.64,1.64,0,0,0,.89,1.61q4.36,2.47,8.68,5a1.67,1.67,0,0,0,1.91,0c2.87-1.69,5.78-3.35,8.68-5a1.71,1.71,0,0,0,.93-1.6C154.33,78.55,154.32,75.2,154.34,71.86Zm-7,5.79c0,.52.28,1.23-.25,1.56-1,.65-2,1.7-3.23,1.72s-2.24-1-3.24-1.68c-.7-.5-.16-1.43-.34-2.15.16-.7-.32-1.57.32-2.08,1-.77,2.06-1.72,3.2-1.76S146,74.21,147,75,147.23,76.75,147.29,77.65Z"/><path class="cls-4" d="M189.35,76.95c0-1.62,0-3.24,0-4.86a1.64,1.64,0,0,1,.87-1.62q4.39-2.52,8.77-5.07a1.76,1.76,0,0,1,1.94.05q4.16,2.42,8.33,4.8a2,2,0,0,1,1,1.66c.24,2-.2,3.44-2.25,4.27a30.36,30.36,0,0,0-3.37,2c-.82.46-1.35.22-1.19-.63.46-2.47-1.18-3.33-2.92-4.19a1.89,1.89,0,0,0-.28-.13c-1-.31-3.79,1.57-3.88,2.63,0,.1,0,.21,0,.31,0,3.48-.36,2.62,2.47,4.28,2.23,1.31,4.48,2.57,6.71,3.88.93.54.95.93,0,1.45-1.67,1-3.36,1.89-5.05,2.82a1.69,1.69,0,0,1-1.77-.11l-8.52-4.89a1.76,1.76,0,0,1-.95-1.7C189.37,80.26,189.35,78.6,189.35,76.95Z"/><path class="cls-4" d="M105.23,78.56c0-2.2,0-4.4,0-6.6a1.87,1.87,0,0,1,1.07-1.83q4.27-2.42,8.52-4.88a1.65,1.65,0,0,1,1.84,0q4.33,2.53,8.68,5a1.66,1.66,0,0,1,.88,1.61c0,4.48,0,9,0,13.45,0,1.19-.31,1.36-1.38.78-1.54-.85-3.06-1.73-4.58-2.61a1.85,1.85,0,0,1-1-1.77c0-1.82,0-3.65,0-5.48A2.14,2.14,0,0,0,118,74.05c-2.44-1.38-3-1.38-5.22.4a1.68,1.68,0,0,0-.64,1.44c0,1.89,0,3.79,0,5.68a2,2,0,0,1-1.07,2c-1.57.86-3.1,1.79-4.67,2.66-.86.48-1.2.27-1.21-.71,0-2.31,0-4.61,0-6.92Z"/><path class="cls-4" d="M197.84,76.86a2.22,2.22,0,0,1,2-2.17,2.43,2.43,0,0,1,2,1.82,2.38,2.38,0,0,1-2,2.54A2.28,2.28,0,0,1,197.84,76.86Z"/></g></g></g></svg>
