<svg xmlns="http://www.w3.org/2000/svg" xmlns:xlink="http://www.w3.org/1999/xlink" width="43" height="54" viewBox="0 0 74.75 93.87"><defs><style>.cls-1{opacity:0.9;}.cls-2{fill:url(#Безымянный_градиент_529);}.cls-3{fill:url(#Безымянный_градиент_663);}</style><radialGradient id="Безымянный_градиент_529" cx="30.7" cy="348.81" r="53.48" gradientTransform="translate(-272.04 -135.36) rotate(-53.31)" gradientUnits="userSpaceOnUse"><stop offset="0" stop-color="#5763ab"/><stop offset="1" stop-color="#d7745f"/></radialGradient><radialGradient id="Безымянный_градиент_663" cx="17.15" cy="353.17" r="66.76" gradientTransform="translate(-272.04 -135.36) rotate(-53.31)" gradientUnits="userSpaceOnUse"><stop offset="0" stop-color="#5731ab"/><stop offset="0.05" stop-color="#7343a2"/><stop offset="0.14" stop-color="#985a95"/><stop offset="0.24" stop-color="#b76e8a"/><stop offset="0.34" stop-color="#d17f81"/><stop offset="0.45" stop-color="#e58b7a"/><stop offset="0.58" stop-color="#f39476"/><stop offset="0.73" stop-color="#fc9973"/><stop offset="1" stop-color="#fe9b72"/></radialGradient></defs><title>Ресурс 6saturn</title><g id="Слой_2" data-name="Слой 2"><g id="Слой_1-2" data-name="Слой 1"><g class="cls-1"><path class="cls-2" d="M46.25,17l-.93-.17a26.28,26.28,0,0,0-2.85-.32,28.24,28.24,0,0,0-4.78.13,33.42,33.42,0,0,0-22.8,13.53A33.42,33.42,0,0,0,8.45,55.9a28.1,28.1,0,0,0,1.24,4.62,26.62,26.62,0,0,0,1.12,2.64c.14.28.28.56.43.84A25.13,25.13,0,0,0,28.5,76.86l.93.17a26.81,26.81,0,0,0,2.85.32,28.27,28.27,0,0,0,4.78-.13,33.42,33.42,0,0,0,22.8-13.53A33.42,33.42,0,0,0,66.31,38a28.27,28.27,0,0,0-1.24-4.62,26.46,26.46,0,0,0-1.12-2.64c-.14-.28-.28-.56-.43-.84A25.13,25.13,0,0,0,46.25,17Z"/><path class="cls-3" d="M37.69,16.65a28.24,28.24,0,0,1,4.78-.13,26.28,26.28,0,0,1,2.85.32c6.72-4,12.67-5.15,16.3-2.44s4.25,8.74,2.32,16.32-6.56,17-13.31,26.1S36.26,73,29.43,77s-12.67,5.15-16.3,2.44-4.25-8.73-2.32-16.32a26.62,26.62,0,0,1-1.12-2.64A28.1,28.1,0,0,1,8.45,55.9C-.36,73.06-2.76,87.65,3.54,92.35s19.6-1.78,33.52-15.12A149.36,149.36,0,0,0,53.24,58.75,149.36,149.36,0,0,0,66.31,38c8.81-17.16,11.21-31.75,4.9-36.45S51.61,3.3,37.69,16.65Z"/></g></g></g></svg>
