<svg xmlns="http://www.w3.org/2000/svg" width="800" height="800" viewBox="0 0 876.71 876.71"><defs><style>.cls-1,.cls-3{fill:#6d69a0;}.cls-1,.cls-2,.cls-3{fill-rule:evenodd;}.cls-2{fill:#8e89d0;}.cls-3{stroke:#8e89d0;stroke-miterlimit:10;stroke-width:10px;}</style></defs><g id="Layer_2" data-name="Layer 2"><g id="Layer_1-2" data-name="Layer 1"><g id="Moon"><path id="Dark" class="cls-1" d="M722.12,104.37a436.1,436.1,0,0,1,65.21,230c0,242.1-196.25,438.36-438.35,438.36A436.39,436.39,0,0,1,65.21,668.39c77.22,125,215.43,208.32,373.14,208.32,242.1,0,438.36-196.26,438.36-438.36C876.71,304.52,816.67,184.78,722.12,104.37Z"/><path id="Light" class="cls-2" d="M438.35,0C196.25,0,0,196.26,0,438.35a436.16,436.16,0,0,0,65.21,230A436.39,436.39,0,0,0,349,772.77c242.1,0,438.35-196.26,438.35-438.36a436.1,436.1,0,0,0-65.21-230A436.51,436.51,0,0,0,438.35,0Z"/><path id="Crater_1" data-name="Crater 1" class="cls-3" d="M214.49,743.83a22.7,22.7,0,1,1,22.69,22.7A22.7,22.7,0,0,1,214.49,743.83Z"/><path id="Crater_2" data-name="Crater 2" class="cls-3" d="M517.05,99.5A24.9,24.9,0,1,1,542,124.39,24.9,24.9,0,0,1,517.05,99.5Z"/><path id="Crater_3" data-name="Crater 3" class="cls-3" d="M365.31,430.2A18.81,18.81,0,1,1,384.11,449,18.8,18.8,0,0,1,365.31,430.2Z"/><path id="Crater_4" data-name="Crater 4" class="cls-3" d="M135.8,307.9A38.17,38.17,0,1,1,174,346.06,38.16,38.16,0,0,1,135.8,307.9Z"/><path id="Crater_5" data-name="Crater 5" class="cls-3" d="M365.45,631.51A35.45,35.45,0,1,1,400.9,667,35.45,35.45,0,0,1,365.45,631.51Z"/><path id="Crater_6" data-name="Crater 6" class="cls-3" d="M567.94,275a42.41,42.41,0,1,1,42.41,42.41A42.41,42.41,0,0,1,567.94,275Z"/><path id="Crater_7" data-name="Crater 7" class="cls-3" d="M525.7,471.14a22.7,22.7,0,1,1,22.69,22.7A22.69,22.69,0,0,1,525.7,471.14Z"/><path id="Crater_8" data-name="Crater 8" class="cls-3" d="M197.35,506.48a59.29,59.29,0,1,1,59.28,59.28A59.29,59.29,0,0,1,197.35,506.48Z"/><path id="Crater_9" data-name="Crater 9" class="cls-3" d="M542.65,672.93a54.66,54.66,0,1,1,54.66,54.67A54.66,54.66,0,0,1,542.65,672.93Z"/><path id="Crater_10" data-name="Crater 10" class="cls-3" d="M286.94,218.49A83.07,83.07,0,1,1,370,301.55,83.07,83.07,0,0,1,286.94,218.49Z"/></g></g></g></svg>