<svg xmlns="http://www.w3.org/2000/svg" xmlns:xlink="http://www.w3.org/1999/xlink" width="324" height="200" viewBox="0 0 374.73 218.8"><defs><style>.cls-1,.cls-2,.cls-3,.cls-4{fill-rule:evenodd;}.cls-1{fill:url(#linear-gradient);}.cls-2{fill:url(#linear-gradient-2);}.cls-3{fill:url(#linear-gradient-3);}.cls-4{opacity:0.5;fill:url(#linear-gradient-4);}</style><linearGradient id="linear-gradient" x1="-20" y1="689.41" x2="354.73" y2="689.41" gradientTransform="matrix(1, 0, 0, -1, 20, 798.82)" gradientUnits="userSpaceOnUse"><stop offset="0" stop-color="#736bd0"/><stop offset="1" stop-color="#3c469c"/></linearGradient><linearGradient id="linear-gradient-2" x1="129.51" y1="182.87" x2="290.15" y2="182.87" gradientUnits="userSpaceOnUse"><stop offset="0" stop-color="#61af95"/><stop offset="1" stop-color="#3c469c"/></linearGradient><linearGradient id="linear-gradient-3" x1="77.96" y1="98.13" x2="296.76" y2="98.13" xlink:href="#linear-gradient-2"/><linearGradient id="linear-gradient-4" x1="18.1" y1="109.63" x2="357.1" y2="109.63" gradientTransform="matrix(1, 0, 0, 1, 0, 0)" xlink:href="#linear-gradient"/></defs><g id="Layer_2" data-name="Layer 2"><g id="Layer_1-2" data-name="Layer 1"><path id="Ring" class="cls-1" d="M291.78,12.93a322.26,322.26,0,0,0-46.57,3.64q4.47,2.79,8.63,6c54.24-5.76,95.39,3.85,103.78,28.24s-18.09,57.27-64.35,86.11c-23.31,14.53-51.56,28-83.06,38.89s-62.05,17.56-89.35,20.46C66.63,202,25.47,192.39,17.08,168S35.19,110.73,81.45,81.9q1.32-5.12,3.12-10C26.33,105-8.21,144.57,1.68,173.31S63.19,212,129.51,202.25a464,464,0,0,0,82.76-20.44,463.35,463.35,0,0,0,77.88-34.88c58.24-33.12,92.8-72.7,82.9-101.44C365.63,23.92,334.74,13,291.78,12.93Z"/><path class="cls-2" d="M129.51,202.25a109.42,109.42,0,0,0,160.64-55.32,463.35,463.35,0,0,1-77.88,34.88A464,464,0,0,1,129.51,202.25Z"/><path class="cls-3" d="M262.36,29.81q-3.42-3.25-7.13-6.16c-.46-.38-.92-.74-1.39-1.1q-4.16-3.18-8.63-6A109.39,109.39,0,0,0,84.57,71.86q-1.8,4.92-3.12,10c-.17.64-.33,1.28-.47,1.92q-1.11,4.56-1.81,9.25A111.3,111.3,0,0,0,78,109.4a109,109,0,0,0,34.85,80q3.47,3.26,7.22,6.18l.83.65c27.3-2.9,57.86-9.62,89.35-20.46S270,151.43,293.27,136.9c.09-.35.18-.7.26-1.05.76-3,1.39-6.14,1.89-9.27a110.63,110.63,0,0,0,1.34-17.18A109,109,0,0,0,262.36,29.81Z"/><path class="cls-4" d="M293.53,135.85q-6.22,3.93-12.95,7.76a419.3,419.3,0,0,1-70.45,31.59,418.84,418.84,0,0,1-74.87,18.51q-7.77,1.14-15.23,1.89c-52.54,5.26-92.22-4.3-100.41-28.1S36.65,112,81,83.82q-1.11,4.56-1.81,9.25C45.23,117,26.76,143,33.55,162.7s37.53,28.88,79.26,26.72c4.74-.23,9.63-.62,14.63-1.15,24.69-2.62,52.34-8.7,80.82-18.52s54.06-22.06,75.14-35.22q6.28-3.93,12-8c34.31-24.06,53-50.17,46.2-70s-37.54-28.88-79.26-26.73q-3.42-3.25-7.13-6.16c9.39-.94,18.37-1.4,26.82-1.4,38.87,0,66.81,10,73.53,29.49C363.77,75.56,338.29,107.6,293.53,135.85Z"/></g></g></svg>